<svg width="7" height="11" viewBox="0 0 7 11" fill="none" xmlns="http://www.w3.org/2000/svg">
<path fill-rule="evenodd" clip-rule="evenodd" d="M3.16579 0.137335L0.138759 3.13796C-0.0459275 3.32104 -0.0459275 3.61795 0.138759 3.80103C0.323484 3.98414 0.622933 3.98414 0.807657 3.80103L3.02727 1.60078L3.02727 10.5312C3.02727 10.7901 3.23904 11 3.50024 11C3.7614 11 3.97321 10.7901 3.97321 10.5312L3.97321 1.60078L6.19282 3.80095C6.37755 3.98407 6.67699 3.98407 6.86172 3.80095C6.95401 3.70943 7.00024 3.58941 7.00024 3.46942C7.00024 3.34943 6.95401 3.22945 6.86172 3.13789L3.83469 0.137335C3.64996 -0.0457792 3.35051 -0.0457792 3.16579 0.137335Z" fill="#32671B"/>
</svg>
