<svg width="23" height="20" viewBox="0 0 23 20" fill="none" xmlns="http://www.w3.org/2000/svg">
<path fill-rule="evenodd" clip-rule="evenodd" d="M21.5638 3.41829C21.1676 2.95136 20.5666 2.69146 19.9428 2.69146H6.40629C6.01928 2.69146 5.65047 2.79718 5.33175 2.9866L4.63967 0.647537C4.52584 0.264301 4.16614 0 3.75636 0H2.70458H0.696633C0.314168 0 0 0.299541 0 0.673967V0.744447C0 1.11447 0.309615 1.41841 0.696633 1.41841H3.32836L4.67154 6.01284L6.52012 12.3517C5.46834 12.6072 4.68975 13.5278 4.68975 14.6202C4.68975 15.8581 5.6869 16.8756 6.94812 16.9549C6.8434 17.2456 6.79331 17.5672 6.82063 17.8976C6.9117 19.0164 7.8542 19.9195 9.0107 19.9944C10.3903 20.0869 11.5423 19.0253 11.5423 17.7126C11.5423 17.4483 11.4967 17.1972 11.4102 16.9593H14.1785C14.0647 17.2721 14.0192 17.6201 14.0602 17.9769C14.1876 19.0605 15.1119 19.9151 16.2411 19.9944C17.6207 20.0869 18.7772 19.0297 18.7772 17.7126C18.7772 16.4395 17.6845 15.422 16.3732 15.422H7.12569C6.67493 15.422 6.29247 15.0828 6.27425 14.6511C6.25604 14.193 6.63395 13.8185 7.10293 13.8185H8.49164H16.018H18.1352C19.0732 13.8185 19.8928 13.1974 20.1204 12.3164L21.9599 5.15387C22.1192 4.53716 21.9735 3.90725 21.5638 3.41829ZM16.4133 16.9549C16.8408 16.9549 17.191 17.2941 17.191 17.7082C17.191 18.1222 16.8408 18.4614 16.4133 18.4614C15.9857 18.4614 15.6355 18.1222 15.6355 17.7082C15.6355 17.2941 15.9812 16.9549 16.4133 16.9549ZM9.95618 17.7082C9.95618 17.2941 9.60596 16.9549 9.17841 16.9549C8.74631 16.9549 8.40063 17.2941 8.40063 17.7082C8.40063 18.1222 8.75086 18.4614 9.17841 18.4614C9.60596 18.4614 9.95618 18.1222 9.95618 17.7082ZM6.31977 6.00406L5.96459 4.79268C5.90994 4.60767 5.98736 4.47111 6.042 4.40504C6.09209 4.33896 6.21048 4.22884 6.40628 4.22884H7.89075L8.29602 6.00846H6.31977V6.00406ZM8.6421 7.53697H6.76599L7.24413 9.18445H9.0155L8.6421 7.53697ZM8.4917 12.2768C8.2868 12.2768 8.10466 12.1446 8.05002 11.9508L7.69031 10.7174H9.36139L9.71655 12.2724H8.4917V12.2768ZM11.337 12.2768H12.4513V10.7218H10.9822L11.337 12.2768ZM12.4575 9.18445H10.6363L10.2629 7.53697H12.4575V9.18445ZM9.91681 6.00403H12.4574V4.2244H9.5116L9.91681 6.00403ZM15.2972 12.2768H14.0464V10.7218H15.6338L15.2972 12.2768ZM14.0464 9.18445H15.9724L16.3322 7.53697H14.0464V9.18445ZM14.0464 6.00403V4.2244H17.0515L16.6645 6.00403H14.0464ZM18.1391 12.2812C18.353 12.2812 18.5351 12.1402 18.5851 11.942L18.8992 10.7262H17.2608L16.9194 12.2812H18.1391ZM19.2918 9.18445H17.5934L17.9531 7.53697H19.7152L19.2918 9.18445ZM20.1068 5.99963L20.4209 4.77503C20.471 4.59443 20.3891 4.45787 20.3344 4.3918C20.2843 4.32572 20.1705 4.22 19.9747 4.22H18.6725L18.2855 5.99963H20.1068Z" fill="#61C000"/>
</svg>
