<svg width="46" height="51" viewBox="0 0 46 51" fill="none" xmlns="http://www.w3.org/2000/svg">
<path d="M44.5344 39.3126C43.4083 38.0376 41.6909 37.5231 40.051 37.9704C39.5597 38.1045 39.0122 37.9457 38.6224 37.556L33.8879 32.8214C34.1699 31.2596 34.1445 29.4538 33.8017 27.4622C35.619 26.2943 37.3148 24.9419 38.8024 23.4542C43.9728 18.2838 43.9728 9.87089 38.8024 4.70037C33.6318 -0.470158 25.2188 -0.47006 20.0485 4.70037C18.9864 5.76252 17.994 6.92822 17.0882 8.16581C13.2647 7.90767 9.57005 9.28505 6.83524 12.02C1.74349 17.1117 1.66609 25.348 6.60292 30.5356C6.28328 30.6972 5.92199 30.7423 5.58664 30.6508C3.94728 30.2036 2.22934 30.7178 1.10333 31.993C-0.36776 33.6588 -0.36776 36.1712 1.10323 37.8371C1.89742 38.7365 2.98453 39.2635 4.17429 39.3286C4.23951 40.5183 4.76642 41.6054 5.66581 42.3996C7.3314 43.8705 9.84362 43.871 11.5098 42.3997C12.785 41.2736 13.2993 39.5556 12.852 37.9163C12.5612 36.8509 13.6031 36.2217 13.7992 35.9549C17.8078 38.1442 23.1855 39.8859 27.632 39.0679L32.3712 43.8072C32.7609 44.1969 32.9197 44.7443 32.7857 45.2358C32.0108 48.0755 34.1601 50.8225 37.0498 50.8225C39.3818 50.8225 41.3343 49.0053 41.4634 46.6481C42.6532 46.583 43.7402 46.056 44.5345 45.1566C46.0055 43.4908 46.0055 40.9785 44.5344 39.3126ZM22.1323 6.78421C26.1536 2.76298 32.697 2.76268 36.7187 6.78421C40.7401 10.8057 40.7401 17.3491 36.7187 21.3707C33.4457 24.6437 29.0631 27.1914 24.6945 28.3603C20.7651 29.4116 17.3879 29.1288 15.881 27.6219C14.3466 26.0875 14.061 22.8017 15.1172 18.8325C16.2769 14.4741 18.8338 10.0827 22.1323 6.78421ZM8.91889 14.1038C10.6292 12.3935 12.8222 11.3658 15.1625 11.1328C13.8888 13.3582 12.896 15.7198 12.2694 18.0746C11.5276 20.8623 11.3631 23.3975 11.7497 25.5019L8.74247 28.5091C4.89844 24.4747 4.95718 18.0655 8.91889 14.1038ZM11.1827 34.4041C10.047 35.5398 9.59717 37.1829 10.0089 38.6921C10.1584 39.2396 9.98596 39.8139 9.55905 40.1909C9.01437 40.6719 8.16104 40.6719 7.61636 40.1909C6.96716 39.6176 6.95036 38.6364 7.54583 38.0408L5.46208 35.9571C4.86484 36.5542 3.88392 36.5342 3.31203 35.8866C2.83109 35.3419 2.83109 34.4886 3.31203 33.9439C3.68894 33.5171 4.26328 33.3446 4.81082 33.494C6.32002 33.9058 7.96311 33.4561 9.09884 32.3203L12.8775 28.5415C13.4348 29.4341 14.1144 30.0959 14.9631 30.6237L11.1827 34.4041ZM23.6794 36.2303C21.2488 35.9493 18.5691 35.0894 15.9793 33.7749L18.009 31.7452C22.1981 32.5019 27.2357 30.9799 31.0463 29.0426C31.3239 31.6901 30.8737 33.8243 29.7566 34.9416C28.6055 36.0926 26.4474 36.5501 23.6794 36.2303ZM42.3255 43.2061C41.7536 43.8536 40.7727 43.8739 40.1755 43.2767L38.0916 45.3603C38.6871 45.956 38.6702 46.9372 38.021 47.5105C37.4763 47.9914 36.623 47.9914 36.0785 47.5105C35.6514 47.1335 35.4791 46.5592 35.6285 46.0117C36.0402 44.5024 35.5905 42.8593 34.4548 41.7237L30.6738 37.9426C31.5284 37.4118 32.2076 36.747 32.7616 35.8628L36.5386 39.6399C37.6745 40.7757 39.3178 41.2254 40.8267 40.8136C41.3741 40.6641 41.9484 40.8366 42.3255 41.2635C42.8065 41.8081 42.8065 42.6614 42.3255 43.2061Z" fill="#FBB8A6"/>
</svg>
