<svg width="22" height="16" viewBox="0 0 22 16" fill="none" xmlns="http://www.w3.org/2000/svg">
<path d="M14.5833 7.67532L22 12.3641V2.78857L14.5833 7.67532Z" fill="#61C000"/>
<path d="M0 2.78857V12.3641L7.41675 7.67532L0 2.78857Z" fill="#61C000"/>
<path d="M20.625 0H1.37501C0.688885 0 0.144385 0.5115 0.0412598 1.17013L11 8.39025L21.9588 1.17013C21.8556 0.5115 21.3111 0 20.625 0Z" fill="#61C000"/>
<path d="M13.3238 8.50577L11.3781 9.78727C11.2626 9.86289 11.132 9.90002 11 9.90002C10.868 9.90002 10.7374 9.86289 10.6219 9.78727L8.67626 8.50439L0.0440063 13.9645C0.149881 14.6176 0.691631 15.125 1.37501 15.125H20.625C21.3084 15.125 21.8501 14.6176 21.956 13.9645L13.3238 8.50577Z" fill="#61C000"/>
</svg>
