<svg width="16" height="18" viewBox="0 0 16 18" fill="none" xmlns="http://www.w3.org/2000/svg">
<path d="M15.6834 0H4.13569C3.96105 0 3.81901 0.139888 3.81901 0.311787V5.40934C3.81901 5.58128 3.96105 5.72112 4.13569 5.72112H4.98017C5.15477 5.72112 5.29685 5.58128 5.29685 5.40934V1.45501H14.5222V16.545H5.29681V12.5907C5.29681 12.4187 5.15477 12.2789 4.98013 12.2789H4.13565C3.96105 12.2789 3.81897 12.4187 3.81897 12.5907V17.6882C3.81897 17.8601 3.96105 18 4.13565 18H15.6834C15.858 18 16.0001 17.8601 16.0001 17.6882V0.311787C16.0001 0.139888 15.858 0 15.6834 0Z" fill="#61C000"/>
<path d="M0 8.58434V9.41577C0 9.58771 0.142041 9.72756 0.316679 9.72756H8.6797L7.24611 11.139C7.18628 11.1979 7.15334 11.2761 7.15334 11.3595C7.15334 11.4427 7.18628 11.521 7.24611 11.5799L7.84324 12.1679C7.90303 12.2267 7.98258 12.2592 8.06715 12.2592C8.15173 12.2592 8.23124 12.2268 8.29111 12.1679L11.2847 9.22051C11.3445 9.16164 11.3775 9.08332 11.3775 9.00006C11.3775 8.91679 11.3445 8.83851 11.2847 8.7796L8.29115 5.8323C8.23132 5.77343 8.15181 5.74097 8.06724 5.74097C7.98262 5.74097 7.90311 5.77339 7.84328 5.8323L7.24611 6.42025C7.12269 6.5418 7.12269 6.7396 7.24615 6.86116L8.67974 8.27259H0.316679C0.142041 8.27255 0 8.4124 0 8.58434Z" fill="#61C000"/>
</svg>
