<svg width="30" height="30" viewBox="0 0 30 30" fill="none" xmlns="http://www.w3.org/2000/svg">
<path d="M27.2961 9.32669L26.6691 6.19275L24.9232 6.89167C23.3914 7.50486 21.7576 8.07927 20.056 8.60316C19.3045 6.5578 18.169 4.52491 16.673 2.5484L14.7441 0L13.4766 1.38928C11.4563 3.60381 9.17636 5.75646 6.50661 7.97022C4.39954 9.7174 2.90778 12.1586 2.30607 14.8443C1.68579 17.613 2.01216 20.4294 3.24998 22.989L6.6405 30H10.349C13.5907 30 16.4583 29.5029 18.8718 28.5224C21.1602 27.5927 23.0539 26.2267 24.5004 24.4622C27.5192 20.7797 28.512 15.4045 27.2961 9.32669ZM24.3036 9.01485C23.1471 11.3453 21.7006 13.6575 19.9846 15.9117C18.2207 18.2287 16.1714 20.4896 13.8936 22.6317C11.5178 24.8661 9.38138 26.5068 8.07068 27.4503V21.8846C8.07068 19.4422 8.87125 17.1425 10.3859 15.234C11.8562 13.3814 13.9225 12.0512 16.2043 11.4884C17.1299 11.26 18.0397 11.0195 18.9195 10.771L18.9211 10.7757L19.7246 10.5388C19.7322 10.5366 19.7399 10.5344 19.7475 10.5322V10.5321C21.3246 10.067 22.8508 9.55796 24.3036 9.01485ZM4.02137 15.2286C4.53841 12.9207 5.81953 10.8235 7.62864 9.32341C10.2929 7.11421 12.5814 4.96057 14.6179 2.74586L15.2714 3.60926C16.6357 5.4118 17.6734 7.25519 18.3652 9.10087C17.528 9.33647 16.6632 9.56464 15.7833 9.78168C13.1258 10.4372 10.7199 11.9855 9.00901 14.1413C7.24514 16.3638 6.31284 19.0414 6.31284 21.8846V25.2849L4.83244 22.2238C3.76912 20.0251 3.48869 17.6062 4.02137 15.2286ZM23.1409 23.3479C21.8826 24.8829 20.2237 26.0759 18.2102 26.8938C16.0077 27.7886 13.3628 28.2422 10.349 28.2422H9.96522C11.2936 27.244 13.0891 25.7989 15.067 23.9414C17.4207 21.7309 19.5405 19.3945 21.3674 16.9972C23.0578 14.7792 24.4993 12.5033 25.6732 10.2044C26.6256 15.5337 25.7335 20.1853 23.1409 23.3479Z" fill="#43A14A"/>
</svg>
