<svg width="30" height="30" viewBox="0 0 30 30" fill="none" xmlns="http://www.w3.org/2000/svg">
<path d="M30 12.5291C29.9881 6.19246 24.7098 0.972812 18.4022 1.00011C12.863 1.02211 8.41816 4.89111 7.22269 9.81947C6.97851 10.8262 6.17298 11.5866 5.17057 11.7568C2.32663 12.2394 -0.0161378 14.5972 0.0128622 18.2793C-0.00137309 23.1796 3.86767e-05 18.957 3.86767e-05 23.3023C3.86767e-05 26.0171 2.20875 28.2258 4.92357 28.2258H18.4488C24.7165 28.2258 29.9988 24.1302 29.9988 21.1005C29.9988 21.0985 30 12.5291 30 12.5291ZM5.46587 13.4965C7.16434 13.2083 8.5271 11.9282 8.93763 10.2355C10.0002 5.8547 13.895 2.7827 18.4091 2.76481C18.4221 2.76475 18.4346 2.76475 18.4475 2.76475C23.7772 2.76475 28.2251 7.19976 28.2352 12.5325C28.2454 17.9487 23.8659 22.3378 18.4487 22.3378H6.21681C3.87128 22.3378 1.94498 20.5142 1.77786 18.2106C1.78586 15.4789 3.41433 13.8448 5.46587 13.4965ZM28.2341 21.1006C28.2341 22.8053 24.0668 26.4612 18.4488 26.4612H4.92357C3.18181 26.4612 1.76475 25.0441 1.76475 23.3024C1.76475 22.5568 1.76445 22.8027 1.76616 22.2214C2.8961 23.381 4.47369 24.1024 6.21687 24.1024H18.4488C22.5647 24.1024 26.174 21.9629 28.2341 18.6971V21.1006Z" fill="#742D16"/>
<path d="M6.06807 20.9938C19.6038 20.9938 18.8101 20.9985 18.9068 20.9841C23.3164 20.7788 26.82 17.1436 26.82 12.6882C26.82 8.10845 23.0941 4.38257 18.5144 4.38257C14.8223 4.38257 11.8188 6.72681 10.6803 9.9374C9.75137 12.5573 7.68242 14.5436 5.14589 15.2506C3.78354 15.6305 3.09277 16.5617 3.09277 18.0185C3.09277 19.659 4.42748 20.9938 6.06807 20.9938ZM5.61983 16.9506C8.70919 16.0893 11.2228 13.688 12.3436 10.5272C13.2871 7.86651 15.7093 6.14728 18.5145 6.14728C22.1211 6.14728 25.0554 9.08151 25.0554 12.6882C25.0554 16.2306 22.2839 19.1017 18.7458 19.2245C18.5478 19.2313 19.8958 19.229 6.06807 19.229C5.40054 19.229 4.85748 18.686 4.85748 18.0185C4.85748 17.2819 5.08219 17.1005 5.61983 16.9506Z" fill="#742D16"/>
<path d="M19.4068 13.8465C20.9285 13.8465 22.1666 12.6084 22.1666 11.0867C22.1666 9.56496 20.9285 8.3269 19.4068 8.3269C17.885 8.3269 16.647 9.56496 16.647 11.0867C16.647 12.6084 17.885 13.8465 19.4068 13.8465ZM19.4068 10.0916C19.9554 10.0916 20.4019 10.538 20.4019 11.0867C20.4019 11.6354 19.9554 12.0818 19.4068 12.0818C18.8581 12.0818 18.4117 11.6354 18.4117 11.0867C18.4117 10.538 18.8581 10.0916 19.4068 10.0916Z" fill="#742D16"/>
</svg>
