<svg width="30" height="30" viewBox="0 0 30 30" fill="none" xmlns="http://www.w3.org/2000/svg">
<path d="M28.6973 18.7984C28.4117 18.421 28.4694 17.9087 28.8309 17.6073C28.8837 17.5633 28.9362 17.5191 28.9881 17.475C29.6315 16.9295 30.0004 16.134 30 15.2931C30.0004 14.4517 29.6315 13.6562 28.9881 13.1105C28.936 13.0663 28.8838 13.0223 28.8316 12.9789C28.4694 12.6768 28.4116 12.1645 28.6979 11.7866L28.8186 11.6266C29.8577 10.2451 29.4298 8.19811 27.6964 7.3345C27.2169 7.09567 27.0176 6.59112 27.2225 6.13515C28.2365 3.87584 25.9951 1.73179 22.2142 3.90232C20.2784 5.01361 18.1377 7.06655 15.8513 10.004C15.6468 10.2668 15.3365 10.4174 14.9998 10.4174C14.6633 10.4174 14.3529 10.2667 14.1484 10.004C11.8621 7.06661 9.72137 5.01367 7.7855 3.90232C4.01536 1.738 1.75927 3.86834 2.77716 6.13485C2.96589 6.55491 2.83347 7.07077 2.26435 7.35395C0.634803 8.17139 0.108457 10.2005 1.18171 11.6274L1.30242 11.7872C1.58812 12.1645 1.5304 12.6768 1.16836 12.9786C1.11597 13.0223 1.06377 13.0663 1.01162 13.1106C-0.339666 14.2565 -0.334568 16.3335 1.01109 17.4745C1.06365 17.5192 1.11615 17.5633 1.16812 17.6066C1.5304 17.9088 1.58812 18.4211 1.30224 18.7986L1.18125 18.9589C0.148067 20.3324 0.559042 22.379 2.30331 23.2511C2.78284 23.4899 2.98206 23.9944 2.77698 24.4508C2.75577 24.4982 2.73468 24.5455 2.71341 24.5935C2.26652 25.6034 2.59605 26.6924 3.51479 27.2418C4.11795 27.6026 5.47492 28.0096 7.78544 26.6833C9.72125 25.5719 11.862 23.5191 14.1483 20.5816C14.3528 20.3189 14.6632 20.1682 14.9998 20.1682C15.3364 20.1682 15.6468 20.3189 15.8512 20.5816C18.1375 23.5191 20.2783 25.5719 22.2141 26.6833C23.4226 27.377 24.37 27.5966 25.0855 27.5966C27.0004 27.5964 27.9166 26.0182 27.2861 24.5931C27.2651 24.5455 27.2439 24.4982 27.2226 24.4507C27.0329 24.0284 27.1679 23.5153 27.7354 23.2316C29.3737 22.41 29.8852 20.3771 28.8184 18.9587L28.6973 18.7984ZM27.7183 15.9786C27.6707 16.0189 27.6232 16.059 27.5746 16.0995C26.412 17.0693 26.218 18.7752 27.1328 19.983L27.2502 20.1385C27.5657 20.5578 27.4362 21.1869 26.8215 21.4944C25.4108 22.197 24.8006 23.8489 25.4325 25.2549C25.5247 25.4599 25.5545 25.5116 25.4776 25.5575C25.4059 25.6004 25.2815 25.6316 25.1047 25.6316C24.1204 25.6314 21.5166 24.6652 17.4001 19.3762C16.8211 18.6324 15.9463 18.2056 15 18.2056C14.0537 18.2056 13.1789 18.6323 12.6 19.3762C7.7439 25.6151 4.99316 25.8389 4.52242 25.5574C4.44526 25.5114 4.47561 25.4595 4.56742 25.255C5.17223 23.9093 4.66381 22.237 3.14442 21.4773C2.62687 21.2178 2.40409 20.5982 2.74956 20.1388L2.86698 19.9833C3.78198 18.7752 3.58803 17.0694 2.42454 16.0989C2.37679 16.0591 2.32915 16.019 2.28111 15.9782C1.85706 15.6186 1.85484 14.9689 2.28111 14.6074C2.32898 14.5668 2.37702 14.5264 2.42536 14.4861C3.58803 13.5163 3.78198 11.8104 2.86751 10.603L2.74979 10.4471C2.43825 10.033 2.55778 9.40056 3.17852 9.09119C4.48158 8.44209 5.26246 6.89903 4.5083 5.19794C4.45182 5.07027 4.48768 5.04876 4.52237 5.02808C4.99293 4.74607 7.74378 4.97031 12.5999 11.2093C13.1789 11.9532 14.0537 12.3799 14.9999 12.3799C15.9463 12.3799 16.8211 11.9532 17.4 11.2093C22.256 4.97037 25.0066 4.74625 25.4776 5.02802C25.5123 5.04871 25.5482 5.07021 25.4919 5.19753C24.7822 6.79661 25.4045 8.38403 26.8556 9.10812C27.3775 9.36986 27.5936 9.99066 27.2509 10.4462L27.1331 10.6023C26.2181 11.8103 26.412 13.5162 27.5749 14.4861C27.6231 14.5262 27.6711 14.5666 27.7189 14.6072C27.9963 14.8426 28.0376 15.1375 28.0375 15.2931C28.0375 15.448 27.9962 15.743 27.7183 15.9786Z" fill="#EFBA5E"/>
<path d="M21.0485 16.2739C19.6095 16.2739 18.9765 15.8075 18.1586 15.2927C18.9764 14.778 19.6094 14.3114 21.0485 14.3114C21.5905 14.3114 22.0298 13.8721 22.0298 13.3301C22.0298 12.7882 21.5905 12.3489 21.0485 12.3489C19.1343 12.3489 18.1002 13.0054 17.2693 13.533C16.5576 13.9849 16.0433 14.3114 15.0001 14.3114C13.9568 14.3114 13.4425 13.9849 12.7308 13.533C11.8999 13.0055 10.8658 12.3489 8.9516 12.3489C8.40967 12.3489 7.97034 12.7882 7.97034 13.3301C7.97034 13.8721 8.40967 14.3114 8.9516 14.3114C10.3907 14.3114 11.0236 14.7779 11.8415 15.2927C11.0237 15.8074 10.3907 16.2739 8.9516 16.2739C8.40967 16.2739 7.97034 16.7133 7.97034 17.2552C7.97034 17.7971 8.40967 18.2365 8.9516 18.2365C10.8659 18.2365 11.8999 17.5799 12.7308 17.0524C13.4426 16.6004 13.9568 16.2739 15.0001 16.2739C16.0433 16.2739 16.5576 16.6004 17.2693 17.0524C18.1002 17.5799 19.1343 18.2365 21.0485 18.2365C21.5905 18.2365 22.0298 17.7971 22.0298 17.2552C22.0298 16.7133 21.5905 16.2739 21.0485 16.2739Z" fill="#EFBA5E"/>
</svg>
