<svg width="30" height="30" viewBox="0 0 30 30" fill="none" xmlns="http://www.w3.org/2000/svg">
<path d="M30 1.24574L28.7613 0L25.3636 3.37849C23.6525 1.95082 21.5166 1.17324 19.2604 1.17324C16.7123 1.17324 14.3161 2.16508 12.5133 3.96599L0 16.4675L13.4924 29.9775L26.0077 17.4742C29.5227 13.9628 29.7221 8.36988 26.6051 4.62154L30 1.24574ZM24.7661 16.2314L13.4938 27.4929L2.48416 16.4689L13.7549 5.20886C15.2259 3.73932 17.1812 2.93001 19.2604 2.93001C21.045 2.93001 22.7373 3.52635 24.1112 4.62388L22.0222 6.70112C21.7085 6.5617 21.3665 6.48768 21.0129 6.48768C20.3496 6.48768 19.7258 6.7458 19.2565 7.21455C18.2867 8.18302 18.2857 9.75996 19.2542 10.7297C19.7238 11.1999 20.3484 11.4589 21.0129 11.4589C21.6763 11.4589 22.3 11.2007 22.7694 10.732C23.5247 9.97761 23.6921 8.8542 23.2717 7.93603L25.3534 5.8661C27.7923 8.923 27.5963 13.4041 24.7661 16.2314ZM21.742 8.97243C21.742 9.37653 21.4144 9.70409 21.0103 9.70409C20.6062 9.70409 20.2786 9.37653 20.2786 8.97243C20.2786 8.56833 20.6062 8.24076 21.0103 8.24076C21.4144 8.24076 21.742 8.56833 21.742 8.97243Z" fill="#FC280B"/>
<path d="M7.49731 16.2837L19.4936 14.563L19.7431 16.3023L7.74678 18.0229L7.49731 16.2837Z" fill="#FC280B"/>
<path d="M13.6514 13.8883C14.2989 13.8883 14.9076 13.6361 15.3654 13.1783C16.3106 12.2332 16.3106 10.6954 15.3654 9.75023C14.9076 9.29243 14.2989 9.04028 13.6514 9.04028C13.004 9.04028 12.3953 9.29243 11.9373 9.75023C10.9922 10.6954 10.9922 12.2332 11.9374 13.1784C12.3953 13.6362 13.004 13.8883 13.6514 13.8883ZM13.6515 10.7966C14.0204 10.7966 14.3195 11.0957 14.3195 11.4646C14.3195 11.8335 14.0204 12.1326 13.6515 12.1326C13.2826 12.1326 12.9836 11.8335 12.9836 11.4646C12.9836 11.0957 13.2826 10.7966 13.6515 10.7966Z" fill="#FC280B"/>
<path d="M13.7588 18.6465C13.1114 18.6465 12.5027 18.8986 12.0448 19.3564C11.0997 20.3016 11.0997 21.8394 12.0448 22.7846C12.5027 23.2423 13.1114 23.4945 13.7588 23.4945C14.4063 23.4945 15.015 23.2423 15.4729 22.7845C16.418 21.8394 16.418 20.3016 15.4729 19.3564C15.015 18.8986 14.4063 18.6465 13.7588 18.6465ZM13.7587 21.7399C13.3898 21.7399 13.0907 21.4408 13.0907 21.0719C13.0907 20.703 13.3898 20.404 13.7587 20.404C14.1276 20.404 14.4266 20.703 14.4266 21.0719C14.4266 21.4408 14.1275 21.7399 13.7587 21.7399Z" fill="#FC280B"/>
</svg>
