<svg width="30" height="30" viewBox="0 0 30 30" fill="none" xmlns="http://www.w3.org/2000/svg">
<path d="M23.2521 18.5296C23.2681 18.2787 23.2767 18.027 23.2767 17.7758C23.2767 13.4981 20.9565 9.7526 17.5088 7.73012C19.6394 7.15743 21.2127 5.20995 21.2127 2.90107V1H15.9851C14.0492 1 12.368 2.10648 11.5374 3.71962L10.9861 1.93814L9.30901 2.45711L10.4661 6.19632C4.59714 6.78595 0 11.7541 0 17.7758C0 24.1932 5.22093 29.4142 11.6384 29.4142C13.0329 29.4142 14.3908 29.1708 15.6825 28.6915C16.95 29.26 18.3539 29.5767 19.8306 29.5767C25.438 29.5767 30 25.0147 30 19.4073V18.5296H23.2521ZM15.8907 22.4176C15.4202 21.8033 15.0897 21.0765 14.9478 20.2851H17.9729L15.8907 22.4176ZM19.179 21.5626V24.3248C18.4544 24.2293 17.7789 23.9765 17.1873 23.6024L19.179 21.5626ZM20.9346 21.5019L22.8235 23.3598C22.272 23.7784 21.6312 24.085 20.9346 24.2439V21.5019ZM24.0145 22.069L22.2009 20.2851H24.7133C24.5974 20.9316 24.3556 21.5348 24.0145 22.069ZM12.7401 6.0005C12.7401 4.21117 14.1958 2.75547 15.9851 2.75547H19.4571V2.90107C19.4571 4.6904 18.0014 6.1461 16.2121 6.1461H12.7401V6.0005ZM11.6384 27.6587C6.18895 27.6587 1.75552 23.2253 1.75552 17.7758C1.75552 12.4592 5.97579 8.11034 11.2422 7.90163H12.0345C17.3009 8.1104 21.5212 12.4592 21.5212 17.7758C21.5212 18.0272 21.5117 18.279 21.4929 18.5296H9.66127V19.4073C9.66127 22.681 11.2166 25.5978 13.6265 27.4591C12.9772 27.5917 12.3129 27.6587 11.6384 27.6587ZM19.8305 27.8212C15.4876 27.8212 11.9027 24.5135 11.4622 20.2851H13.1719C13.6033 23.5751 16.4248 26.1234 19.8306 26.1234C23.2364 26.1234 26.0579 23.5751 26.4893 20.2851H28.1991C27.7586 24.5135 24.1735 27.8212 19.8305 27.8212Z" fill="#FF5F01"/>
<path d="M6.97412 10.8953H8.73304V12.6509H6.97412V10.8953Z" fill="#FF5F01"/>
<path d="M5.21521 12.6509H6.97413V14.4065H5.21521V12.6509Z" fill="#FF5F01"/>
</svg>
