<svg width="30" height="30" viewBox="0 0 30 30" fill="none" xmlns="http://www.w3.org/2000/svg">
<path d="M28.0131 24.775C28.2701 24.4793 28.4949 24.1499 28.6807 23.7915C29.539 22.1362 29.4061 20.1633 28.3337 18.6421C26.9641 16.6994 25.0298 15.0754 22.7399 13.9464C20.395 12.7901 17.7187 12.1787 15 12.1787C12.2813 12.1787 9.6048 12.7901 7.2599 13.9464C4.97017 15.0754 3.03589 16.6994 1.66603 18.6421C0.593719 20.1633 0.460739 22.1362 1.31905 23.7915C1.5049 24.1499 1.72966 24.4793 1.98669 24.775C0.85556 24.9998 0 26 0 27.1963C0 28.5575 1.10733 29.6648 2.46849 29.6648H27.5315C28.8927 29.6648 30 28.5575 30 27.1963C30 26 29.1444 24.9998 28.0131 24.775ZM20.8656 15.0368C21.3544 15.278 22.9216 16.0299 23.3704 16.3187C21.3622 16.9527 19.7207 17.9772 18.6019 18.8206C18.5744 18.8415 18.4904 18.9046 18.3758 18.8238C18.2593 18.7421 18.2906 18.6403 18.3009 18.6066C18.8601 16.7964 19.9475 15.6861 20.8656 15.0368ZM7.57874 15.7593C8.21503 15.4455 9.33792 14.9399 10.0225 14.7172C9.01451 15.7696 8.26836 16.8747 7.74536 17.7927C7.72865 17.8218 7.69844 17.8758 7.60345 17.8561C7.50732 17.8362 7.50023 17.7705 7.4968 17.7389C7.42401 17.0624 7.45148 16.3981 7.57874 15.7593ZM3.10272 19.6551C3.80699 18.6563 4.68498 17.7518 5.69939 16.9729C5.69801 17.2887 5.71472 17.6071 5.74905 17.9273C5.83878 18.7588 6.42609 19.4063 7.24525 19.5771C7.98225 19.751 8.92731 19.2688 9.27269 18.6629C10.0955 17.2187 11.5354 15.2544 13.7622 13.9834C16.0771 13.9365 17.6239 14.0954 18.8766 14.4034C17.9972 15.2441 17.132 16.4341 16.6214 18.0882C16.3667 18.9129 16.6589 19.7664 17.3657 20.2626C17.7093 20.5038 18.0991 20.624 18.4879 20.624C18.8979 20.624 19.3071 20.4906 19.66 20.2244C20.8848 19.3008 22.8053 18.1351 25.1427 17.6767C25.8067 18.2809 26.3958 18.944 26.8973 19.6551C27.6002 20.6521 27.6837 21.8961 27.1204 22.9822C26.5643 24.0549 25.5215 24.7034 24.3212 24.7278H5.67879C4.47853 24.7034 3.43575 24.0549 2.87956 22.9822C2.31628 21.8961 2.39983 20.6521 3.10272 19.6551ZM27.5315 27.907H2.46849C2.07664 27.907 1.75781 27.5882 1.75781 27.1963C1.75781 26.8045 2.07664 26.4857 2.46849 26.4857H27.5315C27.9234 26.4857 28.2422 26.8045 28.2422 27.1963C28.2422 27.5882 27.9234 27.907 27.5315 27.907Z" fill="#F48F4C"/>
<path d="M12.4688 9.53912C12.9542 9.53912 13.3477 9.14568 13.3477 8.66022V6.51308C13.3477 6.10132 13.5447 5.7081 13.8752 5.46091C14.6468 4.88344 15.1073 3.96402 15.1073 3.00111V1.87891C15.1073 1.39345 14.7139 1 14.2284 1C13.7429 1 13.3495 1.39345 13.3495 1.87891V3.00111C13.3495 3.41287 13.1522 3.80632 12.8219 4.05351C12.0504 4.63075 11.5898 5.5504 11.5898 6.51308V8.66022C11.5898 9.14568 11.9833 9.53912 12.4688 9.53912Z" fill="#F48F4C"/>
<path d="M14.8912 8.66022C14.8912 9.14568 15.2847 9.53912 15.7701 9.53912C16.2556 9.53912 16.649 9.14568 16.649 8.66022V8.26929C16.649 7.85753 16.8463 7.46431 17.1766 7.21712C17.9482 6.63965 18.4087 5.72023 18.4087 4.75732V1.87891C18.4087 1.39345 18.0152 1 17.5298 1C17.0443 1 16.6509 1.39345 16.6509 1.87891V4.75755C16.6509 5.16908 16.4538 5.56253 16.1233 5.80972C15.352 6.38719 14.8912 7.30661 14.8912 8.26929V8.66022Z" fill="#F48F4C"/>
</svg>
