<svg width="30" height="30" viewBox="0 0 30 30" fill="none" xmlns="http://www.w3.org/2000/svg">
<path d="M28.0504 16.6042L24.047 18.9155L21.4748 17.4305L24.5176 15.6738C24.7906 15.5161 24.9589 15.225 24.9589 14.9096C24.9589 14.5944 24.7906 14.3031 24.5176 14.1456L21.3183 12.2983L24.0468 10.7229L28.0504 13.0344C28.1893 13.1147 28.3411 13.1527 28.4908 13.1527C28.7959 13.1527 29.0923 12.9945 29.2557 12.7114C29.4994 12.2894 29.3548 11.7496 28.9327 11.5061L25.8117 9.70413L28.011 8.43407C28.4331 8.19054 28.5777 7.65083 28.334 7.22878C28.0904 6.80672 27.5507 6.66206 27.1287 6.90605L24.9291 8.17566V4.57169C24.9291 4.0844 24.5341 3.68935 24.0468 3.68935C23.5595 3.68935 23.1644 4.0844 23.1644 4.57169V9.19464L20.5142 10.7247V7.21115C20.5142 6.89598 20.346 6.60461 20.0729 6.44691C19.7999 6.28944 19.4637 6.28944 19.1906 6.44691L16.0693 8.2489V5.09811L20.0729 2.78664C20.495 2.54311 20.6396 2.0034 20.3959 1.58134C20.1521 1.15929 19.6127 1.01486 19.1906 1.25839L16.0693 3.06038V0.882339C16.0693 0.39505 15.6743 0 15.187 0C14.6997 0 14.3047 0.39505 14.3047 0.882339V3.06038L11.1834 1.25839C10.7616 1.01463 10.2216 1.15929 9.9781 1.58134C9.73457 2.0034 9.879 2.54311 10.3011 2.78664L14.3047 5.09811V8.2489L11.1834 6.44691C10.9106 6.28922 10.5741 6.28922 10.3011 6.44691C10.028 6.60461 9.86 6.89575 9.86 7.21115V10.7247L7.20955 9.19441V4.57169C7.20955 4.0844 6.8145 3.68935 6.32721 3.68935C5.83992 3.68935 5.44487 4.0844 5.44487 4.57169V8.17566L3.55842 7.08664C3.13637 6.84288 2.59689 6.98753 2.35313 7.40959C2.1096 7.83165 2.25426 8.37135 2.67609 8.61488L4.56253 9.7039L1.44127 11.5059C1.01921 11.7496 0.874785 12.2891 1.11832 12.7112C1.28174 12.9943 1.57837 13.1527 1.88324 13.1527C2.03293 13.1527 2.18468 13.1145 2.32361 13.0341L6.32721 10.7227L9.05594 12.2983L5.8564 14.1454C5.58334 14.3031 5.41511 14.5942 5.41511 14.9096C5.41511 15.2248 5.58334 15.5161 5.8564 15.6736L8.89938 17.4305L6.32721 18.9155L2.32361 16.604C1.90155 16.3602 1.36185 16.5049 1.11832 16.927C0.874785 17.349 1.01921 17.8887 1.44127 18.1322L4.56253 19.9342L2.67609 21.0233C2.25426 21.267 2.1096 21.8065 2.35313 22.2285C2.51655 22.5117 2.81319 22.6701 3.11806 22.6701C3.26774 22.6701 3.41949 22.6318 3.55842 22.5515L5.44487 21.4625V25.0667C5.44487 25.554 5.83992 25.949 6.32721 25.949C6.8145 25.949 7.20955 25.554 7.20955 25.0667V20.4437L9.86 18.9134V22.608C9.86 22.9232 10.028 23.2146 10.3011 23.372C10.5741 23.5297 10.9106 23.5297 11.1834 23.372L14.3047 21.5703V24.5403L10.3011 26.8517C9.879 27.0953 9.73457 27.635 9.9781 28.057C10.2219 28.4791 10.7616 28.6237 11.1834 28.38L14.3047 26.578V29.1177C14.3047 29.6049 14.6997 30 15.187 30C15.6743 30 16.0693 29.6049 16.0693 29.1177V26.578L19.1906 28.38C19.3295 28.4603 19.4813 28.4983 19.631 28.4983C19.9358 28.4983 20.2325 28.3401 20.3959 28.057C20.6396 27.635 20.495 27.0953 20.0729 26.8517L16.0693 24.5403V21.5703L19.1906 23.3723C19.327 23.451 19.4794 23.4906 19.6319 23.4906C19.7841 23.4906 19.9365 23.451 20.0729 23.3723C20.346 23.2146 20.5142 22.9234 20.5142 22.6083V18.9137L23.1647 20.444V25.0669C23.1647 25.5542 23.5597 25.9492 24.047 25.9492C24.5343 25.9492 24.9294 25.5542 24.9294 25.0669V21.4627L27.1287 22.7325C27.2676 22.8129 27.4194 22.8511 27.569 22.8511C27.8741 22.8511 28.1705 22.6927 28.334 22.4096C28.5777 21.9875 28.4331 21.4478 28.011 21.2043L25.8117 19.9345L28.933 18.1325C29.355 17.8889 29.4994 17.3492 29.2559 16.9272C29.0121 16.5049 28.4724 16.3605 28.0504 16.6042ZM22.3119 14.9096L19.7102 16.4117L16.9517 14.8192L19.5536 13.317L22.3119 14.9096ZM18.7493 8.7394V11.7437L16.0693 13.2909V10.2866L18.7493 8.7394ZM11.6247 8.7394L14.3047 10.2866V13.2909L11.6247 11.7437V8.7394ZM8.06236 14.9096L10.8206 13.317L13.4223 14.8192L10.6641 16.4117L8.06236 14.9096ZM11.6247 21.0798V17.8947L14.3047 16.3474V19.5325L11.6247 21.0798ZM18.7493 21.0798L16.0693 19.5325V16.3474L18.7495 17.8947V21.0798H18.7493Z" fill="#92C6DF"/>
</svg>
