<svg width="30" height="30" viewBox="0 0 30 30" fill="none" xmlns="http://www.w3.org/2000/svg">
<path d="M17.4121 11.1718H21.6485C24.1582 11.1718 28.1758 11.2874 28.1758 7.46872C28.1758 4.13713 24.0124 0 17.8828 0H17.4121C14.4753 0 11.6916 0.994806 9.44477 2.82422H8.46778C4.34348 2.82422 1 6.16096 1 10.2929C1 10.7783 1.39352 11.1718 1.87891 11.1718H4.8509C4.79483 11.6578 4.76559 12.1499 4.76559 12.6465C4.76559 19.6321 10.4179 25.293 17.4121 25.293H17.5184L21.9684 29.7429C22.3109 30.0855 22.8685 30.0862 23.2122 29.742C24.1323 28.8218 24.639 27.5984 24.639 26.2972C24.639 25.2706 24.3235 24.2923 23.7383 23.473C24.3235 22.6539 24.639 21.6755 24.639 20.6488C24.639 19.3474 24.1321 18.1239 23.2114 17.2031C22.8681 16.8598 22.3116 16.8598 21.9684 17.2031L17.5192 21.6523H17.4121C14.5189 21.6523 12.1718 19.3109 12.1718 16.4121C12.1719 13.5189 14.5134 11.1718 17.4121 11.1718ZM18.7617 1.79145C23.6535 2.16785 26.418 5.45725 26.418 7.46878C26.418 9.1329 25.2271 9.41409 21.6485 9.41409H18.7617V1.79145ZM18.7617 22.8956L22.5016 19.1558C22.7494 19.6084 22.8812 20.1185 22.8812 20.6488C22.8812 21.4806 22.5572 22.2627 21.9689 22.851C21.9626 22.8573 21.956 22.8641 21.9499 22.8706C21.6243 23.2164 21.633 23.759 21.9689 24.0949C22.5572 24.6832 22.8812 25.4653 22.8812 26.2971C22.8812 26.8275 22.7496 27.3375 22.5016 27.7901L18.7618 24.0502V22.8956H18.7617ZM2.82449 9.41403C3.07504 7.78085 4.43664 5.11659 7.61758 4.64456C6.46247 6.05315 5.6377 7.67491 5.1812 9.41403H2.82449ZM10.4141 16.4121C10.4141 20.1502 13.3358 23.189 17.004 23.3985V23.5276C11.1884 23.3121 6.52346 18.5138 6.52346 12.6465C6.52346 6.77913 11.1883 1.98076 17.004 1.76531V9.42563C13.3308 9.63552 10.4141 12.6787 10.4141 16.4121ZM22.5274 5.58592C22.5274 5.10077 22.1336 4.70702 21.6485 4.70702C21.1633 4.70702 20.7696 5.10077 20.7696 5.58592C20.7696 6.07108 21.1633 6.46483 21.6485 6.46483C22.1336 6.46483 22.5274 6.07108 22.5274 5.58592Z" fill="#3986A4"/>
</svg>
