<svg width="30" height="30" viewBox="0 0 30 30" fill="none" xmlns="http://www.w3.org/2000/svg">
<path d="M26.155 17.0226C26.3345 16.6548 26.4258 16.2728 26.4258 15.8789V13.2422C26.4258 12.7567 26.0323 12.3633 25.5469 12.3633C25.0623 12.3633 24.668 11.9689 24.668 11.4844C24.668 10.9998 25.0623 10.6055 25.5469 10.6055C26.0323 10.6055 26.4258 10.212 26.4258 9.72656V5.33203C26.4258 1.16798 17.4584 0 13.2422 0C11.3267 0 9.48418 0.149689 7.76642 0.444717C7.42401 0.50354 7.14821 0.758743 7.06306 1.09566C6.97472 1.44493 6.64627 1.81641 6.21094 1.81641C5.99579 1.81641 5.74997 1.68365 5.5529 1.46141C5.3199 1.19888 4.95323 1.10001 4.61998 1.20987C2.60307 1.87523 0 3.21053 0 5.33203V15.8789C0 16.5951 0.323639 17.6624 1.86607 18.6784C2.8727 19.3419 4.30161 19.9159 5.99854 20.3387C6.1805 20.384 6.37779 20.3705 6.55724 20.2936L12.3633 17.8242V20.2734C12.3633 20.7589 12.7567 21.1523 13.2422 21.1523C13.9027 21.1523 14.5557 21.134 15.1987 21.0983C14.7464 21.4602 12.8661 22.9642 12.6892 23.1063C12.4773 23.2782 12.3633 23.5364 12.3633 23.7891V29.1211C12.3633 29.6066 12.7567 30 13.2422 30H29.1211C29.6066 30 30 29.6066 30 29.1211V23.7891C30 20.9246 28.458 18.4108 26.155 17.0226ZM28.1788 22.9102H26.2747C25.9117 21.8871 24.9348 21.1523 23.7891 21.1523C22.6433 21.1523 21.6664 21.8871 21.3034 22.9102H15.7478L22.3309 17.6438C25.2825 17.7832 27.7556 19.9931 28.1788 22.9102ZM22.9102 23.7884C22.9104 23.3041 23.3045 22.9102 23.7891 22.9102C24.2736 22.9102 24.668 23.3045 24.668 23.7891C24.668 24.2736 24.2736 24.668 23.7891 24.668C23.3045 24.668 22.9106 24.2741 22.9102 23.7897C22.9102 23.7895 22.9102 23.7893 22.9102 23.7891C22.9102 23.7888 22.9102 23.7886 22.9102 23.7884ZM4.69254 3.04665C5.14847 3.38654 5.67924 3.57422 6.21094 3.57422C7.19238 3.57422 8.10059 2.97981 8.55171 2.09816C10.0319 1.87225 11.6071 1.75781 13.2422 1.75781C20.2169 1.75781 24.668 3.87474 24.668 5.33203C24.668 7.75337 16.8803 8.76572 14.1211 8.83644V6.21094C14.1211 5.91934 13.9764 5.64674 13.735 5.48309C13.4933 5.31967 13.1866 5.28671 12.9158 5.39497L6.27914 8.04955C3.17482 7.25258 1.75781 6.09238 1.75781 5.33203C1.75781 4.71794 2.66991 3.79784 4.69254 3.04665ZM1.75781 15.8789V8.05916C1.80702 8.0928 1.85715 8.12645 1.90887 8.1601C2.77657 8.72314 3.94958 9.21982 5.33203 9.61349V10.7561C4.30893 11.1189 3.57422 12.0962 3.57422 13.2422C3.57422 14.3882 4.30893 15.3655 5.33203 15.7283V18.3261C2.88483 17.5518 1.75781 16.5523 1.75781 15.8789ZM7.08984 18.157V15C7.08984 14.5145 6.6964 14.1211 6.21094 14.1211C6.20934 14.1211 6.2075 14.1211 6.2059 14.1211C5.72365 14.1183 5.33203 13.7251 5.33203 13.2422C5.33203 12.7576 5.72639 12.3633 6.21094 12.3633C6.6964 12.3633 7.08984 11.9698 7.08984 11.4844V9.61853L12.3633 7.50916V15.9139L7.08984 18.157ZM14.1211 19.3833C14.1211 18.3069 14.1211 11.475 14.1211 10.5945C17.3495 10.5153 22.023 9.89616 24.668 8.08296V8.99826C23.6449 9.36104 22.9102 10.3384 22.9102 11.4844C22.9102 12.6304 23.6449 13.6077 24.668 13.9705V15.8789C24.668 16.0096 24.6307 16.1458 24.557 16.2863C23.763 16.0222 22.9138 15.8789 22.0312 15.8789C21.8317 15.8789 21.638 15.9469 21.4822 16.0714L17.7148 19.0855C16.5653 19.251 15.3612 19.3515 14.1211 19.3833ZM14.1211 28.2422V24.668H21.3034C21.6664 25.6911 22.6433 26.4258 23.7891 26.4258C24.9348 26.4258 25.9117 25.6911 26.2747 24.668H28.2422V28.2422H14.1211Z" fill="#FFC702"/>
<path d="M21.1523 13.2422C21.1523 13.7276 20.7589 14.1211 20.2734 14.1211C19.788 14.1211 19.3945 13.7276 19.3945 13.2422C19.3945 12.7567 19.788 12.3633 20.2734 12.3633C20.7589 12.3633 21.1523 12.7567 21.1523 13.2422Z" fill="#FFC702"/>
<path d="M17.6367 15C17.6367 15.4855 17.2433 15.8789 16.7578 15.8789C16.2724 15.8789 15.8789 15.4855 15.8789 15C15.8789 14.5145 16.2724 14.1211 16.7578 14.1211C17.2433 14.1211 17.6367 14.5145 17.6367 15Z" fill="#FFC702"/>
<path d="M19.3945 4.45312C19.3945 4.93858 19.0011 5.33203 18.5156 5.33203C18.0302 5.33203 17.6367 4.93858 17.6367 4.45312C17.6367 3.96767 18.0302 3.57422 18.5156 3.57422C19.0011 3.57422 19.3945 3.96767 19.3945 4.45312Z" fill="#FFC702"/>
<path d="M10.6055 11.4844C10.6055 11.9698 10.212 12.3633 9.72656 12.3633C9.2411 12.3633 8.84766 11.9698 8.84766 11.4844C8.84766 10.9989 9.2411 10.6055 9.72656 10.6055C10.212 10.6055 10.6055 10.9989 10.6055 11.4844Z" fill="#FFC702"/>
</svg>
