<svg width="30" height="30" viewBox="0 0 30 30" fill="none" xmlns="http://www.w3.org/2000/svg">
<path d="M29.0154 5.44846C28.862 5.29503 28.6966 5.15807 28.5203 5.03828C28.5873 4.10282 28.2393 3.1622 27.5385 2.46139C26.8377 1.76059 25.8972 1.41277 24.9616 1.47963C24.8419 1.30335 24.7049 1.13796 24.5515 0.984536C23.4133 -0.153466 21.6331 -0.324535 20.3814 0.573828C20.0893 0.759139 20.0057 1.07391 19.9698 1.20899C19.9489 1.28782 19.2469 4.15498 19.0139 5.12408C17.823 4.64011 16.5428 4.37428 15.2228 4.34738C15.1488 4.34456 15.0746 4.34269 14.9999 4.34269V4.34468C12.1538 4.34468 9.47801 5.45303 7.4655 7.46554C5.45298 9.47805 4.34464 12.1539 4.34464 15C4.34464 16.3987 4.61293 17.7561 5.12409 19.014C4.15487 19.2469 1.28783 19.9489 1.20901 19.9698C1.07386 20.0057 0.759153 20.0893 0.573842 20.3815C-0.324522 21.6331 -0.153511 23.4134 0.984608 24.5515C1.13804 24.7049 1.30342 24.8419 1.47971 24.9617C1.41266 25.8971 1.76066 26.8378 2.46147 27.5386C3.16227 28.2394 4.10295 28.5872 5.03835 28.5203C5.15814 28.6966 5.2951 28.862 5.44853 29.0154C6.09858 29.6654 6.95809 30 7.80898 30C8.44778 30 9.08178 29.8114 9.61849 29.4261C9.91063 29.2408 9.99427 28.9261 10.0301 28.791C10.0511 28.7121 10.7839 25.7165 10.986 24.8759C12.1767 25.3597 13.4566 25.6256 14.7762 25.6526C14.8503 25.6554 14.9246 25.6573 14.9994 25.6573V25.6553H15C17.8461 25.6553 20.5219 24.547 22.5344 22.5345C24.5469 20.522 25.6553 17.8462 25.6553 15C25.6553 13.6013 25.387 12.2439 24.8759 10.986C25.8451 10.7531 28.7122 10.0512 28.791 10.0302C28.9261 9.99431 29.2408 9.91068 29.4261 9.61853C30.3245 8.36684 30.1535 6.58652 29.0154 5.44846ZM22.6829 19.4882C22.1474 20.3865 21.3 21.0309 20.288 21.3048C19.254 21.5847 18.1731 21.4452 17.2441 20.912C16.315 20.3789 15.6493 19.5158 15.3694 18.4818C15.2153 17.9121 15.1891 17.3284 15.2853 16.7635C15.97 17.4078 16.8074 17.8771 17.7411 18.1274C19.2295 18.5264 20.784 18.3218 22.1185 17.5514C22.7951 17.1608 23.3734 16.648 23.8318 16.0437C23.6915 17.2421 23.3084 18.4169 22.6829 19.4882ZM9.68735 22.1371C9.34597 21.8826 9.01854 21.601 8.70875 21.2912C8.12762 20.7101 7.6443 20.0677 7.25792 19.3848C6.20331 17.4792 6.86719 15.0642 8.76097 13.9709C9.6887 13.4353 10.7693 13.2932 11.8041 13.5705C12.3756 13.7237 12.8948 13.9952 13.3358 14.3636C12.4332 14.634 11.6061 15.1253 10.9211 15.8103C9.8314 16.8998 9.23134 18.3484 9.23134 19.8893C9.23122 20.6862 9.39379 21.4459 9.68735 22.1371ZM7.31676 10.5124C7.85223 9.61402 8.69985 8.96959 9.71208 8.69549C10.7462 8.41554 11.8273 8.55496 12.7562 9.08809C13.6853 9.62129 14.3511 10.4844 14.6309 11.5184C14.785 12.0879 14.8112 12.6715 14.7151 13.2362C14.0304 12.5918 13.193 12.1226 12.2592 11.8723C10.7708 11.4733 9.21628 11.6779 7.88189 12.4483C7.19392 12.8455 6.61871 13.364 6.16756 13.9613C6.30739 12.7615 6.69056 11.585 7.31676 10.5124ZM22.7437 10.6178C23.2483 11.5304 23.3785 12.5839 23.1079 13.594C22.8306 14.6286 22.1671 15.4933 21.2395 16.0288C20.3117 16.5643 19.231 16.7065 18.1964 16.4293C17.6251 16.2761 17.1061 16.0047 16.6653 15.6366C17.5675 15.3661 18.3942 14.8749 19.0791 14.1902C20.1687 13.1007 20.7688 11.6521 20.7688 10.1112C20.7688 9.31396 20.6061 8.55396 20.3123 7.86265C20.6538 8.11718 20.9813 8.39883 21.2912 8.70874C21.8731 9.29063 22.357 9.93395 22.7437 10.6178ZM15.2855 6.11211C17.3641 6.25915 19.0106 7.99598 19.0106 10.1112C19.0106 11.1824 18.5934 12.1894 17.8359 12.9469C17.4166 13.3661 16.9206 13.6805 16.3797 13.8782C16.5955 12.9593 16.5816 11.9958 16.3281 11.0591C15.9255 9.57171 14.9679 8.33021 13.6314 7.56318C12.9514 7.17292 12.2148 6.92965 11.4592 6.83758C12.5855 6.35057 13.7928 6.10695 15.0001 6.10695C15.0952 6.10695 15.1903 6.10906 15.2855 6.11211ZM8.38836 28.118C7.84971 28.3704 7.16133 28.2418 6.69167 27.7722C6.53144 27.612 6.40878 27.4257 6.32709 27.2185L6.02579 26.4544L5.243 26.7031C4.72182 26.8688 4.11807 26.7087 3.70466 26.2953C3.29126 25.8819 3.13115 25.2781 3.29683 24.757L3.54561 23.9742L2.78151 23.6729C2.57428 23.5911 2.38798 23.4685 2.22781 23.3083C1.75814 22.8386 1.62956 22.1503 1.88203 21.6116C2.5223 21.4498 4.0958 21.0689 5.94632 20.6246C6.37332 21.309 6.88102 21.9498 7.46561 22.5344C8.0502 23.119 8.691 23.6267 9.37545 24.0537C8.93104 25.9042 8.55017 27.4777 8.38836 28.118ZM14.7136 23.8878C12.6355 23.7406 10.9894 22.0041 10.9894 19.8892C10.9894 18.818 11.4065 17.811 12.1641 17.0536C12.5835 16.6342 13.0797 16.3197 13.6207 16.1221C13.4049 17.041 13.4189 18.0044 13.6723 18.9411C14.0749 20.4285 15.0326 21.67 16.369 22.437C17.049 22.8272 17.7855 23.0702 18.5409 23.1623C17.3255 23.6878 16.0159 23.9293 14.7136 23.8878ZM28.118 8.38834C27.4776 8.55015 25.9042 8.93097 24.0537 9.37532C23.6267 8.69092 23.119 8.05007 22.5344 7.46548C21.9498 6.88089 21.3089 6.37319 20.6245 5.94619C21.0689 4.09561 21.4497 2.52223 21.6116 1.8819C22.1502 1.62949 22.8386 1.75807 23.3083 2.22768C23.4685 2.3879 23.5912 2.57421 23.6728 2.78144L23.9741 3.54554L24.7569 3.29676C25.278 3.13108 25.8819 3.29119 26.2953 3.70459C26.7087 4.118 26.8688 4.72181 26.7031 5.24293L26.4543 6.02572L27.2184 6.32701C27.4256 6.40877 27.612 6.53137 27.7721 6.6916C28.2418 7.16126 28.3704 7.8497 28.118 8.38834Z" fill="#E63C7C"/>
</svg>
