<svg width="19" height="18" viewBox="0 0 19 18" fill="none" xmlns="http://www.w3.org/2000/svg">
<path d="M12.5952 10.6812C14.8088 7.63009 14.0684 3.40521 10.9426 1.24502C7.81685 -0.915172 3.48856 -0.193044 1.27549 2.85858C-0.937573 5.90968 -0.197769 10.1341 2.92855 12.2942C5.15959 13.8361 8.10929 13.9548 10.4625 12.5983L15.5755 17.5592C16.1276 18.1265 17.0462 18.1492 17.6273 17.6103C18.2085 17.072 18.2317 16.1754 17.6802 15.6081C17.6627 15.59 17.6458 15.5735 17.6273 15.5565L12.5952 10.6812ZM6.9311 11.1437C4.46104 11.1442 2.45844 9.191 2.45685 6.77995C2.45632 4.3689 4.45733 2.41415 6.92793 2.41312C9.39482 2.41209 11.3964 4.36219 11.4011 6.77015C11.4054 9.18171 9.4054 11.1396 6.93427 11.1437C6.93322 11.1437 6.93269 11.1437 6.9311 11.1437Z" fill="#BDBDBD"/>
</svg>
