<svg width="50" height="51" viewBox="0 0 50 51" fill="none" xmlns="http://www.w3.org/2000/svg">
<path d="M48.3408 27.385H43.7024C44.063 25.2502 44.0266 23.0632 43.5884 20.8599C42.6046 15.9139 39.3716 11.5708 34.9479 9.0936C35.0319 8.95308 35.0943 8.79868 35.1277 8.63413C35.2201 8.18042 35.0926 7.70972 34.7837 7.36479C34.6587 7.22534 31.6793 3.94751 27.833 3.94751C26.145 3.94751 24.6245 4.57895 23.4384 5.29927V2.28735C23.4384 1.47837 22.7825 0.82251 21.9735 0.82251C21.1646 0.82251 20.5087 1.47837 20.5087 2.28735V5.29927C19.3227 4.57895 17.8022 3.94751 16.1143 3.94751C12.2679 3.94751 9.28858 7.22534 9.16358 7.36489C8.85469 7.70981 8.72715 8.18042 8.81944 8.63413C8.85294 8.79868 8.91524 8.95317 8.99942 9.0937C4.57579 11.5708 1.34268 15.914 0.358795 20.86C-0.619623 25.7789 0.418658 30.6884 3.28233 34.6844C5.96944 38.4339 10.0494 40.9885 14.5597 41.7732C17.9188 47.1996 23.9252 50.8225 30.7627 50.8225C41.263 50.8225 49.8057 42.2798 49.8057 31.7795V28.8499C49.8057 28.0409 49.1498 27.385 48.3408 27.385ZM16.1143 6.8772C18.1096 6.8772 19.9171 8.38921 20.597 9.03374C20.8394 9.53999 21.3512 9.87358 21.9736 9.87358C22.6084 9.87358 23.1124 9.52886 23.3494 9.03569C24.0303 8.39214 25.8451 6.8772 27.833 6.8772C29.2636 6.8772 30.5979 7.65454 31.4895 8.33267C30.5638 9.06724 29.1577 9.90503 27.5016 9.76353C26.9379 9.71548 26.3959 9.99673 26.111 10.4863C25.8262 10.9757 25.849 11.5855 26.1696 12.0524C26.8254 13.0072 27.1141 14.1728 27.2398 15.0786C26.1289 14.9285 24.6305 14.5354 23.616 13.521C23.473 13.3779 23.3396 13.2007 23.1708 12.9614C22.8964 12.572 22.4498 12.3405 21.9735 12.3405C21.4973 12.3405 21.0507 12.5721 20.7763 12.9614C20.6075 13.2007 20.4741 13.3779 20.3311 13.521C19.3164 14.5356 17.8176 14.9287 16.7074 15.0788C16.8332 14.1724 17.1219 13.007 17.7775 12.0524C18.0982 11.5856 18.121 10.9757 17.8361 10.4863C17.555 10.0033 17.0174 9.7148 16.4456 9.76353C14.7886 9.90493 13.3823 9.06733 12.4575 8.33286C13.3491 7.65474 14.6834 6.8772 16.1143 6.8772ZM5.66368 32.9778C3.27715 29.6476 2.41358 25.547 3.23223 21.4315C4.11788 16.9791 7.20577 13.1125 11.3731 11.1673C12.1668 11.7017 13.1611 12.2217 14.3204 12.5001C13.594 14.6123 13.6835 16.5937 13.6892 16.7039C13.7277 17.4515 14.3238 18.0499 15.0714 18.0911C15.2486 18.1009 19.2421 18.2916 21.9736 15.9867C23.8203 17.5449 26.7234 18.2096 28.8759 18.0911C29.6233 18.0499 30.2195 17.4515 30.2581 16.7039C30.2638 16.5937 30.3532 14.612 29.6267 12.4999C30.7852 12.2211 31.7794 11.7012 32.5733 11.1669C36.741 13.112 39.8292 16.9788 40.7149 21.4315C41.1165 23.45 41.1175 25.4474 40.7227 27.385H13.1846C12.3756 27.385 11.7197 28.0409 11.7197 28.8499V31.7795C11.7197 34.08 12.1299 36.2866 12.8808 38.3299C10.005 37.3521 7.46104 35.4859 5.66368 32.9778ZM46.876 31.7795C46.876 40.6644 39.6476 47.8928 30.7627 47.8928C21.8778 47.8928 14.6493 40.6644 14.6493 31.7795V30.3147H41.8644C41.8681 30.3147 41.8718 30.3151 41.8755 30.3151C41.8786 30.3151 41.8816 30.3147 41.8848 30.3147H46.8759V31.7795H46.876Z" fill="#FC520B"/>
<path d="M35.8385 33.2444C35.3153 33.2444 34.8317 33.5235 34.5701 33.9767C33.7872 35.3321 32.3285 36.1741 30.7627 36.1741C29.197 36.1741 27.7381 35.3321 26.9554 33.9767C26.6938 33.5236 26.2102 33.2444 25.687 33.2444H19.4145C18.9614 33.2444 18.5337 33.4541 18.2564 33.8124C17.9789 34.1706 17.883 34.6371 17.9962 35.0758C19.5007 40.8973 24.7504 44.9631 30.7627 44.9631C36.7749 44.9631 42.0247 40.8973 43.5292 35.0757C43.6426 34.6371 43.5466 34.1706 43.2692 33.8123C42.9917 33.454 42.5641 33.2444 42.111 33.2444H35.8385ZM29.2979 38.9544V41.9286C28.3021 41.7854 27.3473 41.4979 26.4575 41.086L28.7299 38.8135C28.9169 38.8678 29.1063 38.9151 29.2979 38.9544ZM32.2276 38.9544C32.5695 38.8842 32.9045 38.7897 33.2307 38.6726L35.7259 40.7519C34.6556 41.3443 33.4737 41.7494 32.2277 41.9286V38.9544H32.2276ZM24.9025 36.1741C25.235 36.6165 25.6149 37.0161 26.0322 37.3682L23.9544 39.4459C22.9363 38.5423 22.0938 37.4351 21.4961 36.1741H24.9025ZM38.1135 38.9281L35.8525 37.0439C36.1303 36.7761 36.3886 36.4859 36.6229 36.1741H40.0293C39.5413 37.2037 38.8899 38.1304 38.1135 38.9281Z" fill="#FC520B"/>
</svg>
